<svg height="512" width="512" xmlns="http://www.w3.org/2000/svg"><g fill="#fff"><path d="M130.98 241v110h109.984v-30h-79.988v-50h79.988V161H130.98v30h79.988v50zm249.963 110V161h-29.996v80h-49.992v-80h-29.996v110h79.988v80z"/><path d="M493.665 160.738l-27.853 11.134c33.603 84.09 13.93 179.818-50.122 243.88-42.696 42.702-99.45 66.229-159.81 66.248h-.073c-60.327 0-117.036-23.488-159.681-66.139-42.664-42.67-66.149-99.414-66.13-159.779.02-60.368 23.543-117.132 66.238-159.833 42.696-42.702 99.45-66.229 159.81-66.248h.073c49.427 0 96.419 15.777 135.243 44.932l-22.943 2.962 3.84 29.753 69.139-8.926.021-68.623-29.996-.01-.007 22.406C367.034 18.448 313.004 0 256.118 0h-.084c-68.369.022-132.652 26.67-181.01 75.035S.021 187.694 0 256.072c-.021 68.382 26.584 132.663 74.915 181.001 48.313 48.321 112.547 74.929 180.89 74.926h.084c68.369-.022 132.652-26.67 181.01-75.035 72.546-72.555 94.828-180.981 56.766-276.226z"/></g></svg>