<svg height="512" width="512" xmlns="http://www.w3.org/2000/svg" data-name="Layer 1"><path d="M387.94 369.34c9.98 9.9 9.98 20.08.1 30.36-.1 0-.1.1 0 0-2.35 2.54-4.74 4.92-7.21 7.34l-82.82-82.89-.25-.25 7.99-8c3.3-3.3 8.53-7.28 14.64-7.28 6.01 0 10.95 3.78 13.95 7.08l.2.2zm-241.9-243.37c10.27 10.29 10.27 19.79 0 30.07l-8.06 7.95-82.8-82.88 8.57-8.58c4.75-4.46 9.79-6.89 14.73-6.89 6.11 0 11.05 3.69 14.15 6.79.1.1.2.2.3.29 5.91 5.53 53.11 53.25 53.11 53.25z" fill="#deeafb"/><path d="M339.75 75.43a46.45 46.45 0 0133.35-4.41c13.25 3.07 26.6 11.92 38.38 25.47 16.87-7.39 32.52-9.53 45.99-6.41 23.98 5.55 38.57 26.72 37.47 54.34-1.54 40.98-37.78 87.38-115.06 99.04a8.262 8.262 0 01-2.39-.08 8.495 8.495 0 01-2.18-.98 192.273 192.273 0 01-35.56-31.74c-32.74-38.05-37.11-79.05-24.29-107.82 5.68-12.49 14.18-21.88 24.29-27.41z" fill="#c9767f"/><path d="M339.75 210.66a192.993 192.993 0 01-35.56 31.74 8.495 8.495 0 01-2.18.98 8.262 8.262 0 01-2.39.08c-77.28-11.66-113.52-58.06-115.06-99.04-1.1-27.62 13.49-48.79 37.47-54.34 13.47-3.12 29.12-.98 45.99 6.41 11.78-13.55 25.13-22.4 38.37-25.47a46.47 46.47 0 0133.36 4.41c-10.11 5.53-18.61 14.92-24.29 27.41-12.82 28.77-8.45 69.77 24.29 107.82z" fill="#aa636d"/><path d="M298.01 324.15l82.82 82.89-4.62 4.5a254.5 254.5 0 00-18.7 19.4c-9.79 10.47-21.32 15.42-36.44 15.42-1.46 0-3.01 0-4.46-.1-28.79-1.84-55.53-13.09-75.6-22.7-54.85-26.57-103.02-64.31-143.05-112.13-33.04-39.86-55.14-76.72-69.77-116.3-9.02-24.15-12.31-42.97-10.86-60.72A44.583 44.583 0 0130.7 105.6l24.48-24.49 82.8 82.88-6.44 6.36a47.751 47.751 0 00-.31 67.66l92.19 92.66a47.657 47.657 0 0067.5.07l6.84-6.84z" fill="#403e5b"/><path d="M214.56 144.42c-1.072-26.92 12.764-47.7 35.668-53.881-10.12-2.289-19.6-2.45-28.2-.459-23.98 5.55-38.57 26.72-37.47 54.34 1.54 40.98 37.78 87.38 115.06 99.04a8.262 8.262 0 002.39-.08 8.495 8.495 0 002.18-.98 230.478 230.478 0 004.426-3.194c-62.871-16.214-92.661-57.716-94.054-94.786z" fill="#89515b"/><path d="M311.755 337.907a47.781 47.781 0 009.165-7.167l6.84-6.84 7.385-7.394-.6-.606-.2-.2c-3-3.3-7.94-7.08-13.95-7.08-6.11 0-11.34 3.98-14.64 7.28l-7.99 8 .25.25zM93.254 73.026c-.118-.112-.227-.216-.324-.306s-.2-.19-.3-.29c-3.1-3.1-8.04-6.79-14.15-6.79-4.94 0-9.98 2.43-14.73 6.89l-8.57 8.58 14.995 15.009z" fill="#bfccdb"/><path d="M127.96 311.43c-33.04-39.86-55.14-76.72-69.77-116.3-9.02-24.15-12.31-42.97-10.86-60.72A44.583 44.583 0 0160.7 105.6l9.475-9.481L55.18 81.11 30.7 105.6a44.583 44.583 0 00-13.37 28.81c-1.45 17.75 1.84 36.57 10.86 60.72 14.63 39.58 36.73 76.44 69.77 116.3 40.03 47.82 88.2 85.56 143.05 112.13 20.07 9.61 46.81 20.86 75.6 22.7 1.45.1 3 .1 4.46.1a55.974 55.974 0 0013.2-1.474c-24.038-3.7-46.094-13.105-63.263-21.326-54.847-26.57-103.017-64.31-143.047-112.13zm183.795 26.477L298.01 324.15l-.25-.25-6.84 6.84a47.471 47.471 0 01-18.715 11.55 47.735 47.735 0 0039.55-4.383z" fill="#52526d"/><path d="M52.84 191.168a6 6 0 01-5.556-3.73 341.068 341.068 0 01-4.193-10.774 6 6 0 0111.255-4.164 330.197 330.197 0 004.046 10.395 6 6 0 01-5.552 8.272zm65.66 105.715a5.986 5.986 0 01-4.623-2.171c-25.011-30.171-43.986-58.956-58.008-88a6 6 0 0110.808-5.212c13.6 28.157 32.056 56.144 56.441 85.558a6 6 0 01-4.616 9.829z" fill="#f4f8fc"/><g data-name="Group 3"><g data-name="Group 4" fill="#d4e1f4"><path d="M395.865 349.591a6 6 0 01-6-5.987 30.818 30.818 0 00-30.678-30.71 6 6 0 01.011-12h.013a42.841 42.841 0 0142.654 42.685 6 6 0 01-5.988 6.012z" data-name="Path 8"/><path d="M427.088 343.339a6 6 0 01-6-5.953c-.238-30.442-24.96-55.208-55.11-55.208a6 6 0 110-12c36.715 0 66.82 30.107 67.11 67.114a6 6 0 01-5.953 6.047z" data-name="Path 9"/></g></g></svg>