<svg height="512" viewBox="0 0 128 128" width="512" xmlns="http://www.w3.org/2000/svg"><text fill="#24253a" font-family="MyriadPro-Regular, Myriad Pro" font-size="40" letter-spacing=".002em" transform="translate(43.419 -1194.265)">10<tspan x="0" y="228">20</tspan><tspan x="0" y="456">30</tspan><tspan x="0" y="684">40</tspan><tspan x="0" y="912">50</tspan><tspan x="0" y="1140">60</tspan><tspan x="0" y="1368">70</tspan><tspan x="0" y="1596">80</tspan><tspan x="0" y="1824">90</tspan><tspan x="-10.299" y="2052">100</tspan><tspan x="-10.299" y="2280">110</tspan><tspan x="-10.299" y="2508">120</tspan><tspan x="-10.299" y="2736">130</tspan><tspan x="-10.299" y="2964">140</tspan><tspan x="-10.299" y="3192">150</tspan><tspan x="-10.299" y="3420">160</tspan><tspan x="-10.299" y="3648">170</tspan><tspan x="-10.299" y="3876">180</tspan><tspan x="-10.299" y="4104">190</tspan><tspan x="-10.299" y="4332">200</tspan><tspan x="-10.299" y="4560">210</tspan><tspan x="-10.299" y="4788">220</tspan><tspan x="-10.299" y="5016">230</tspan><tspan x="-10.299" y="5244">240</tspan><tspan x="-10.299" y="5472">250</tspan></text><path d="M54.048 43.653l-3.928 6.122a7.725 7.725 0 00.829 9.434l8.566 9.277 9.277 8.566a7.726 7.726 0 009.434.829l6.638-4.259 16.65 17.219-6.748 8.553a8.839 8.839 0 01-9.277 3.039C71.83 98.8 59.988 90.67 48.817 79.183 37.33 68.012 29.2 56.17 25.566 42.511a8.84 8.84 0 013.04-9.276l8.605-6.79z" fill="#ef5261"/><path d="M85.054 73.5l-1 .641 17.126 17.123.375-.475a5.5 5.5 0 00-.434-7.3l-9.237-9.237a5.493 5.493 0 00-6.83-.752zM37.212 26.445l-.475.375L53.86 43.945l.641-1a5.493 5.493 0 00-.75-6.829l-9.237-9.237a5.5 5.5 0 00-7.302-.434z" fill="#da364c"/></svg>