<svg xmlns="http://www.w3.org/2000/svg" width="384.066" height="384.067"><path d="M331.079 366.128s0-108.147-.035-118.906c.035-9.818-.278-245.508-.278-245.508l-5.368-.023s-43.884 24.76-43.872 208.364c33.706 9.26 19.52 46.092 16.964 50.762 0 9.354.72 105.358.72 105.358l.104-.023c-.035.104-.069.187-.058.313-.047 8.818 7.11 15.977 15.894 15.906 8.761.023 15.941-7.146 15.906-15.906.035-.081.035-.209-.023-.268l.046-.069zM253.269 8.481l-9.539-.011 2.824 99.892-11.457-.023V8.458l-8.365.023v100.502h-9.504V8.47l-9.225.011-.023 100.502h-11.235l3.212-100.537h-8.696l-10.579 85.031s-.261 3.201-.261 4.415c0 13.112 6.082 24.841 15.586 32.469 31.33 35.361 9.946 71.432 9.946 80.006.023 9.481.023 155.493.023 155.493h.022c0 .115-.034.197-.046.336.012 8.947 7.268 16.174 16.202 16.197 8.946 0 16.22-7.273 16.22-16.186-.012-.15-.059-.243-.059-.312h.023s.023-144.211.023-155.227c-.023-9.934-18.091-51.436 12.118-82.26.023-.046.093-.128.14-.192 7.366-6.982 12.223-16.609 12.966-27.42.047-.761.023-2.678.023-2.678L253.269 8.481zM108.75.023V0h-.918v.023C72.75.593 52.986 34.182 52.986 70.694c-.012 36.814 22.127 63.083 41.426 68.922 10.579 14.814 3.608 49.838-3.863 70.032v157.677h.035c-.012.104-.035.221-.035.337 0 9.051 7.337 16.405 16.406 16.405h2.678c9.062 0 16.406-7.354 16.406-16.405 0-.116-.012-.232-.035-.337h.035V209.648c-7.471-20.194-14.436-55.218-3.869-70.032 19.31-5.838 41.426-32.108 41.438-68.922C163.607 34.182 143.838.593 108.75.023zM90.439 125.354c-2.19-1.69-4.985-4.392-7.913-7.947-2.974-3.549-6.053-7.947-8.958-13.007a93.052 93.052 0 01-3.974-8.127c-1.179-2.998-2.155-5.885-2.817-9.301-1.214-6.57-1.011-12.85-.325-18.63a83.617 83.617 0 013.236-15.43c1.336-4.415 2.87-7.965 4.142-10.387 1.237-2.463 2.248-3.631 2.248-3.631s-.215 1.568-.319 4.166c-.082 2.603-.215 6.338-.349 10.799-.104 8.795-.831 20.751.813 31.376.308 2.486 1.19 5.304 2.045 7.831.796 2.638 1.76 5.246 2.794 7.744 1.976 5.042 4.107 9.719 5.938 13.75 1.858 3.997 3.509 7.343 4.798 9.591 1.226 2.306 2.341 3.294 2.422 3.201.024.117-1.637-.249-3.781-1.998z" fill="#fff"/></svg>