<svg height="512" viewBox="0 0 50 56" width="512" xmlns="http://www.w3.org/2000/svg"><g fill="#fff"><rect height="8" rx="1" width="4" x="42" y="31"/><rect height="8" rx="1" width="4" x="42" y="11"/><path d="M26.531 28.7a4 4 0 10-3.067-7.389 4 4 0 003.067 7.389zM4.167 54a2 2 0 002 2H16a2 2 0 002-2v-2H4.167zM32 54a2 2 0 002 2h9.833a2 2 0 002-2v-2H32z"/><path d="M47 0H3.17a3 3 0 00-3 3v44a3 3 0 003 3H47a3 3 0 003-3V3a3 3 0 00-3-3zm1 18a3 3 0 01-3 3v8a3 3 0 013 3v6a3 3 0 01-3 3v1a3 3 0 01-3 3H8a3 3 0 01-3-3v-9a1 1 0 012 0v9a1 1 0 001 1h34a1 1 0 001-1v-1a3 3 0 01-3-3v-6a3 3 0 013-3v-8a3 3 0 01-3-3v-6a3 3 0 013-3V8a1 1 0 00-1-1H8a1 1 0 00-1 1v20a1 1 0 01-2 0V8a3 3 0 013-3h34a3 3 0 013 3v1a3 3 0 013 3zm-33-7h-4v4a1 1 0 01-2 0v-5a1 1 0 011-1h5a1 1 0 010 2zm5.408 2.914a12 12 0 11-6.494 6.494 11.917 11.917 0 016.494-6.494z"/><path d="M16.3 27.521a1 1 0 11.766 1.847l-.878.364a9.913 9.913 0 004.078 4.079l.364-.879a1 1 0 111.847.766l-.363.878a9.909 9.909 0 005.768 0l-.363-.878a1 1 0 111.847-.766l.364.878a9.913 9.913 0 004.079-4.078l-.879-.364a1 1 0 11.766-1.847l.878.363a9.909 9.909 0 000-5.768l-.878.363a1 1 0 11-.766-1.847l.878-.364a9.913 9.913 0 00-4.078-4.079l-.364.879a1 1 0 11-1.847-.766l.363-.878a9.909 9.909 0 00-5.768 0l.363.878a1 1 0 11-1.847.766l-.364-.878a9.913 9.913 0 00-4.079 4.078l.879.364a1 1 0 11-.766 1.847l-.878-.363a9.909 9.909 0 000 5.768zm6.4-8.064a6 6 0 114.597 11.085A6 6 0 0122.7 19.457z"/></g></svg>