<svg height="512" width="512" xmlns="http://www.w3.org/2000/svg"><path d="M178.547 353.079c9.51 7.704 22.426 7.179 31.634-.941 12.573-11.088 28.494-17.747 45.841-17.829 17.346-.081 33.329 6.429 46.005 17.398 9.284 8.033 22.204 8.437 31.642.644 13.468-11.122 13.969-33.44.791-45.004-21.63-18.979-49.006-30.279-78.704-30.139-29.697.139-56.967 11.696-78.419 30.877-13.071 11.687-12.362 34 1.21 44.994z" fill="#fff"/><path d="M94.098 284.403l.019.015c10.58 8.571 25.149 6.88 34.2-3.595 32.134-37.189 77.363-60.482 127.494-60.717 50.132-.235 95.575 22.631 128.055 59.517 9.148 10.389 23.732 11.944 34.232 3.273l.019-.015c12.473-10.3 13.9-30.373 3.05-42.734-41.959-47.802-100.753-77.447-165.621-77.142-64.869.305-123.384 30.502-164.896 78.695-10.734 12.463-9.121 32.521 3.448 42.703z" fill="#fff"/><path d="M10.589 216.491l.026.021c10.781 8.734 25.846 6.983 34.626-4.137 51.214-64.873 126.449-106.076 210.356-106.47s159.523 40.1 211.34 104.49c8.882 11.038 23.964 12.647 34.663 3.812l.026-.022c12.075-9.971 13.921-29.266 3.894-41.721C444.167 96.259 354.655 48.337 255.331 48.803 156.007 49.27 66.945 98.03 6.306 174.809c-9.91 12.548-7.884 31.825 4.283 41.682z" fill="#fff"/><ellipse cx="256" cy="430.863" fill="#fff" rx="32.206" ry="32.337"/><path d="M505.519 172.464C444.167 96.259 354.655 48.337 255.331 48.803c-4.426.021-8.83.142-13.214.353 92.912 4.444 176.159 51.215 234.2 123.308 10.226 12.701 8.142 32.627-4.786 42.422 8.909 6.793 21.046 6.769 30.068-.68l.026-.022c12.075-9.971 13.922-29.265 3.894-41.72zm-84.353 67.684c-41.959-47.802-100.753-77.447-165.621-77.142a210.61 210.61 0 00-13.648.524c58.676 4.088 111.489 32.669 150.066 76.618 11.063 12.603 9.383 33.274-3.868 43.378 9.006 6.716 21.003 6.803 30.002-.629l.019-.015c12.473-10.301 13.9-30.373 3.05-42.734zm-86.707 67.199c-21.63-18.979-49.006-30.279-78.704-30.139-4.76.022-9.458.342-14.079.935 23.835 3.055 45.678 13.495 63.581 29.204 13.378 11.739 12.726 34.728-1.627 45.635 9.126 6.77 21.132 6.723 30.038-.631 13.469-11.122 13.97-33.44.791-45.004zM256 398.526a31.883 31.883 0 00-14.601 3.529c10.438 5.355 17.605 16.254 17.605 28.808s-7.168 23.453-17.605 28.808A31.883 31.883 0 00256 463.2c17.758 0 32.206-14.507 32.206-32.337S273.758 398.526 256 398.526z" fill="#fff"/></svg>