<svg xmlns="http://www.w3.org/2000/svg" viewBox="0 0 368 368"><g fill="#fff"><path d="M296 48c-39.704 0-72 32.304-72 72 0 4.416 3.576 8 8 8s8-3.584 8-8c0-30.88 25.128-56 56-56s56 25.12 56 56-25.128 56-56 56H8c-4.416 0-8 3.584-8 8s3.584 8 8 8h288c39.704 0 72-32.304 72-72s-32.296-72-72-72z"/><path d="M8 144h136c30.88 0 56-25.12 56-56s-25.12-56-56-56-56 25.12-56 56c0 4.416 3.584 8 8 8s8-3.584 8-8c0-22.056 17.944-40 40-40s40 17.944 40 40-17.944 40-40 40H8c-4.416 0-8 3.584-8 8s3.584 8 8 8zm272 176c-22.056 0-40-17.944-40-40 0-4.416-3.576-8-8-8s-8 3.584-8 8c0 30.88 25.128 56 56 56s56-25.12 56-56-25.128-56-56-56H8c-4.416 0-8 3.584-8 8s3.584 8 8 8h272c22.056 0 40 17.944 40 40s-17.944 40-40 40z"/></g></svg>